<svg width="60" height="60" viewBox="0 0 60 60" fill="none" xmlns="http://www.w3.org/2000/svg">
<path d="M30.0002 0.000244141C13.458 0.000244141 0 13.4581 0 30.0002C0 46.5424 13.458 60.0002 30.0002 60.0002C46.5423 60.0002 60.0003 46.5422 60.0003 30.0002C60.0003 13.4583 46.5421 0.000244141 30.0002 0.000244141ZM30.0002 56.7035C15.2759 56.7035 3.29695 44.7243 3.29695 30.0001C3.29695 15.2758 15.2759 3.29684 30.0002 3.29684C44.7245 3.29684 56.7034 15.276 56.7034 30.0002C56.7034 44.7245 44.7243 56.7035 30.0002 56.7035Z" fill="#67BAC6"/>
<path d="M35.6567 19.5884L30.0001 9.33203L24.3436 19.5691L30.0001 16.2376L35.6567 19.5884Z" fill="#67BAC6"/>
<path d="M29.9999 2.74316C14.9703 2.74316 2.7428 14.9706 2.7428 30.0003C2.7428 45.03 14.9703 57.2575 29.9999 57.2575C45.0296 57.2575 57.2571 45.0299 57.2571 30.0003C57.2571 14.9707 45.0294 2.74316 29.9999 2.74316ZM29.9999 54.2621C16.622 54.2621 5.73829 43.3782 5.73829 30.0001C5.73829 16.6221 16.622 5.73836 29.9999 5.73836C43.3779 5.73836 54.2616 16.6222 54.2616 30.0003C54.2616 43.3784 43.3778 54.2621 29.9999 54.2621Z" fill="#67BAC6"/>
<path d="M29.9999 2.74316C14.9703 2.74316 2.7428 14.9706 2.7428 30.0003C2.7428 45.03 14.9703 57.2575 29.9999 57.2575C45.0296 57.2575 57.2571 45.0299 57.2571 30.0003C57.2571 14.9707 45.0294 2.74316 29.9999 2.74316ZM29.9999 54.2621C16.622 54.2621 5.73829 43.3782 5.73829 30.0001C5.73829 16.6221 16.622 5.73836 29.9999 5.73836C43.3779 5.73836 54.2616 16.6222 54.2616 30.0003C54.2616 43.3784 43.3778 54.2621 29.9999 54.2621Z" fill="#67BAC6"/>
<path d="M39.4863 37.4263C38.0768 37.9273 36.7734 36.3132 36.5175 33.7993L36.4875 33.8095C36.6119 36.3622 35.617 38.7802 34.2121 39.2799C32.7895 39.7853 31.4764 38.138 31.2367 35.586L29.914 36.0334L28.5918 35.586C28.3521 38.138 27.0384 39.7851 25.6168 39.2797C24.21 38.78 23.215 36.3615 23.34 33.8088L23.3097 33.7986C23.0539 36.313 21.7505 37.9271 20.3408 37.4261C18.9489 36.9309 17.9598 34.5506 18.0633 32.0234L17.6571 31.886V41.1092L29.9142 45.2574L42.1714 41.1092V31.886L41.7652 32.0234C41.8685 34.5506 40.8792 36.9309 39.4863 37.4263Z" fill="#67BAC6"/>
<path d="M17.6571 24.002L17.6652 24.0047V28.9578L29.9147 33.0861L42.1641 28.9578V24.0045L42.1714 24.002L29.9147 19.5432L17.6571 24.002ZM29.9149 26.9383L21.0737 23.9609L29.9149 20.7447L38.7555 23.9609L29.9149 26.9383Z" fill="#67BAC6"/>
</svg>
